<svg width="20" height="20" viewBox="0 0 20 20" fill="none" xmlns="http://www.w3.org/2000/svg">
<g clip-path="url(#clip0_13_6071)">
<path d="M10 0C4.49 0 0 4.49 0 10C0 15.51 4.49 20 10 20C15.51 20 20 15.51 20 10C20 4.49 15.51 0 10 0ZM10 18.18C5.49 18.18 1.82 14.51 1.82 10C1.82 5.49 5.49 1.82 10 1.82C14.51 1.82 18.18 5.49 18.18 10C18.18 14.51 14.51 18.18 10 18.18Z" fill="#909090"/>
<path d="M11.1296 4.75005C10.2096 4.43005 9.22959 4.48005 8.34959 4.90005C7.47959 5.32005 6.81959 6.05005 6.49959 6.97005C6.32959 7.44005 6.57959 7.96005 7.05959 8.13005C7.52959 8.30005 8.04959 8.05005 8.21959 7.57005C8.37959 7.11005 8.70959 6.74005 9.14959 6.53005C9.58959 6.32005 10.0796 6.29005 10.5396 6.45005C11.2696 6.71005 11.7596 7.40005 11.7496 8.17005C11.7496 9.11005 10.1896 9.85005 9.63959 10.04C9.15959 10.2 8.90959 10.71 9.06959 11.19C9.19959 11.57 9.54959 11.81 9.92959 11.81C10.0196 11.81 10.1196 11.79 10.2196 11.76C10.5596 11.65 13.5696 10.57 13.5696 8.17005C13.5696 6.64005 12.5896 5.26005 11.1296 4.75005Z" fill="#909090"/>
<path d="M10.0096 13.64C9.49961 13.64 9.09961 14.05 9.09961 14.55C9.09961 15.05 9.50961 15.46 10.0096 15.46C10.5096 15.46 10.9196 15.05 10.9196 14.55C10.9196 14.05 10.5096 13.64 10.0096 13.64Z" fill="#909090"/>
</g>
<defs>
<clipPath id="clip0_13_6071">
<rect width="20" height="20" fill="white"/>
</clipPath>
</defs>
</svg>
