<svg width="20" height="20" viewBox="0 0 20 20" fill="none" xmlns="http://www.w3.org/2000/svg">
<g clip-path="url(#clip0_13_6072)">
<path d="M8.43994 4.34C8.94994 4.22 9.46994 4.16 9.99994 4.16C14.4799 4.16 17.4299 8.65 18.2099 9.99C17.7799 10.74 17.2799 11.45 16.7199 12.11C16.4199 12.46 16.4699 12.99 16.8199 13.28C16.9799 13.41 17.1699 13.48 17.3599 13.48C17.5999 13.48 17.8299 13.38 17.9999 13.18C18.7299 12.32 19.3699 11.37 19.8999 10.38C20.0299 10.14 20.0299 9.86 19.9099 9.61C19.7699 9.34 16.2799 2.5 9.99994 2.5C9.36994 2.53 8.68994 2.57 8.05994 2.72C7.60994 2.82 7.32994 3.27 7.43994 3.72C7.53994 4.17 7.98994 4.45 8.43994 4.34Z" fill="#909090"/>
<path d="M19.7597 18.58L1.41969 0.24C1.09969 -0.08 0.569687 -0.08 0.239687 0.24C-0.0903124 0.57 -0.0903124 1.09 0.239687 1.42L3.81968 5C2.30969 6.3 1.04969 7.84 0.0996874 9.61C-0.0303125 9.85 -0.0303125 10.13 0.0896874 10.38C0.239687 10.67 3.72968 17.51 10.0197 17.51C11.7597 17.48 13.4197 16.98 14.8597 16.04L18.5797 19.76C18.7397 19.92 18.9597 20 19.1697 20C19.3797 20 19.5997 19.92 19.7597 19.76C20.0797 19.43 20.0797 18.9 19.7597 18.58ZM8.35968 9.54L10.4597 11.64C9.89968 11.82 9.25968 11.71 8.79968 11.28C8.30968 10.82 8.15968 10.14 8.35968 9.54ZM9.99968 15.83C5.51968 15.83 2.56968 11.34 1.78969 10C2.62968 8.54 3.71968 7.27 4.99968 6.18L7.10968 8.29C6.27968 9.62 6.46968 11.39 7.65968 12.5C8.29968 13.1 9.11968 13.39 9.92968 13.39C10.5497 13.39 11.1597 13.21 11.6897 12.87L13.6297 14.81C12.5297 15.46 11.2897 15.81 9.99968 15.83Z" fill="#909090"/>
</g>
<defs>
<clipPath id="clip0_13_6072">
<rect width="20" height="20" fill="white"/>
</clipPath>
</defs>
</svg>
