<svg width="20" height="20" viewBox="0 0 20 20" fill="none" xmlns="http://www.w3.org/2000/svg">
<g clip-path="url(#clip0_13_6073)">
<path d="M6.90039 17.9H2.90039C2.35039 17.9 1.90039 17.45 1.90039 16.9V2.90002C1.90039 2.35002 2.35039 1.90002 2.90039 1.90002H6.90039C7.45039 1.90002 7.90039 1.45002 7.90039 0.900024C7.90039 0.350024 7.45039 -0.0999756 6.90039 -0.0999756H2.90039C1.25039 -0.0999756 -0.0996094 1.25002 -0.0996094 2.90002V16.9C-0.0996094 18.55 1.25039 19.9 2.90039 19.9H6.90039C7.45039 19.9 7.90039 19.45 7.90039 18.9C7.90039 18.35 7.45039 17.9 6.90039 17.9Z" fill="#909090"/>
<path d="M19.8204 10.28C19.9204 10.04 19.9204 9.75996 19.8204 9.51996C19.7704 9.39996 19.7004 9.28996 19.6004 9.18996L14.6004 4.18996C14.2104 3.79996 13.5804 3.79996 13.1904 4.18996C12.8004 4.57996 12.8004 5.20996 13.1904 5.59996L16.4904 8.89996H6.90039C6.35039 8.89996 5.90039 9.34996 5.90039 9.89996C5.90039 10.45 6.35039 10.9 6.90039 10.9H16.4904L13.2004 14.19C12.8104 14.58 12.8104 15.21 13.2004 15.6C13.4004 15.8 13.6504 15.89 13.9104 15.89C14.1704 15.89 14.4204 15.79 14.6204 15.6L19.6204 10.6C19.7004 10.52 19.7704 10.4 19.8204 10.28Z" fill="#909090"/>
</g>
<defs>
<clipPath id="clip0_13_6073">
<rect width="20" height="20" fill="white"/>
</clipPath>
</defs>
</svg>
