<svg width="20" height="20" viewBox="0 0 20 20" fill="none" xmlns="http://www.w3.org/2000/svg">
<path d="M10.0003 12.22C11.2264 12.22 12.2203 11.2261 12.2203 10C12.2203 8.77396 11.2264 7.78003 10.0003 7.78003C8.7742 7.78003 7.78027 8.77396 7.78027 10C7.78027 11.2261 8.7742 12.22 10.0003 12.22Z" fill="#909090"/>
<path d="M10.0003 4.44C11.2264 4.44 12.2203 3.44607 12.2203 2.22C12.2203 0.993928 11.2264 0 10.0003 0C8.7742 0 7.78027 0.993928 7.78027 2.22C7.78027 3.44607 8.7742 4.44 10.0003 4.44Z" fill="#909090"/>
<path d="M10.0003 20.0001C11.2264 20.0001 12.2203 19.0061 12.2203 17.7801C12.2203 16.554 11.2264 15.5601 10.0003 15.5601C8.7742 15.5601 7.78027 16.554 7.78027 17.7801C7.78027 19.0061 8.7742 20.0001 10.0003 20.0001Z" fill="#909090"/>
</svg>
