<svg width="20" height="20" viewBox="0 0 20 20" fill="none" xmlns="http://www.w3.org/2000/svg">
<g clip-path="url(#clip0_13_6068)">
<path fill-rule="evenodd" clip-rule="evenodd" d="M18.9223 1.07745C19.2477 1.40289 19.2477 1.93053 18.9223 2.25596L9.7556 11.4226C9.43016 11.7481 8.90252 11.7481 8.57709 11.4226C8.25165 11.0972 8.25165 10.5696 8.57709 10.2441L17.7438 1.07745C18.0692 0.752015 18.5968 0.752015 18.9223 1.07745Z" fill="#909090"/>
<path fill-rule="evenodd" clip-rule="evenodd" d="M18.9223 1.07735C19.1486 1.30372 19.2253 1.63974 19.1196 1.9419L13.2862 18.6086C13.1734 18.9311 12.875 19.152 12.5336 19.1659C12.1922 19.1798 11.8769 18.984 11.7382 18.6717L8.53501 11.4646L1.3279 8.26145C1.01566 8.12268 0.819777 7.80737 0.833705 7.46597C0.847633 7.12457 1.06855 6.82627 1.39105 6.71339L18.0577 0.88006C18.3599 0.774305 18.6959 0.850988 18.9223 1.07735ZM3.92557 7.59211L9.50479 10.0718C9.69332 10.1556 9.84407 10.3063 9.92786 10.4948L12.4075 16.074L16.9747 3.02492L3.92557 7.59211Z" fill="#909090"/>
</g>
<defs>
<clipPath id="clip0_13_6068">
<rect width="20" height="20" fill="white"/>
</clipPath>
</defs>
</svg>
